<svg width="35" height="35" viewBox="0 0 35 35" fill="none" xmlns="http://www.w3.org/2000/svg">
<path d="M13.09 8.62366H11.1538C11.0897 8.62351 11.0277 8.70942 10.979 8.86591C10.9303 9.0224 10.898 9.23919 10.888 9.47721L10.105 28.1415C10.1014 28.2281 10.1028 28.3166 10.1092 28.4009C10.1155 28.4853 10.1267 28.5634 10.1419 28.6299C10.1571 28.6965 10.1759 28.7499 10.1971 28.7865C10.2183 28.8231 10.2413 28.8419 10.2646 28.8418H11.1889C11.2531 28.8419 11.3151 28.7558 11.3639 28.5991C11.4126 28.4424 11.4449 28.2254 11.4548 27.9872L11.666 22.9531C11.6759 22.7151 11.7081 22.4982 11.7568 22.3415C11.8055 22.1848 11.8674 22.0987 11.9315 22.0985H12.5444C13.8198 22.0985 14.5558 19.7784 14.7481 15.1807C14.8347 13.1692 14.7517 11.5887 14.5012 10.4819C14.226 9.26648 13.738 8.62366 13.09 8.62366ZM13.3133 15.4404C13.2074 18.0521 12.6766 18.0521 12.1634 18.0521H11.8712L12.0762 13.1745C12.0822 13.0318 12.1015 12.9019 12.1307 12.808C12.16 12.7142 12.1971 12.6626 12.2356 12.6626H12.3695C12.7191 12.6626 13.0489 12.6626 13.2193 13.4119C13.321 13.8589 13.3521 14.523 13.3133 15.4404ZM18.8773 15.3563H17.9502C17.9118 15.3563 17.8746 15.4079 17.8454 15.5017C17.8162 15.5955 17.7968 15.7255 17.7908 15.8682L17.7498 16.8431L17.6849 16.4898C17.4842 15.3946 17.0366 15.0285 16.5899 15.0285C15.5654 15.0285 14.6903 17.9457 14.5199 22.0378C14.4313 24.0791 14.5573 26.031 14.8653 27.3922C15.1478 28.6438 15.5521 29.1653 16.033 29.1653C16.8586 29.1653 17.3163 27.1698 17.3163 27.1698L17.275 28.1383C17.2713 28.2249 17.2727 28.3135 17.279 28.3979C17.2853 28.4823 17.2964 28.5606 17.3115 28.6274C17.3266 28.6942 17.3454 28.7478 17.3666 28.7846C17.3877 28.8215 17.4108 28.8406 17.4341 28.8407H18.2692C18.3334 28.8408 18.3954 28.7548 18.4442 28.5981C18.4929 28.4414 18.5251 28.2243 18.5351 27.9861L19.0362 16.0566C19.0398 15.9702 19.0385 15.8818 19.0322 15.7976C19.0259 15.7133 19.0149 15.6352 18.9998 15.5686C18.9846 15.502 18.9659 15.4486 18.9447 15.4119C18.9236 15.3752 18.9006 15.3563 18.8773 15.3563ZM17.585 22.14C17.4955 24.1313 17.0751 25.468 16.5389 25.468C16.2697 25.468 16.0546 25.1434 15.9164 24.5283C15.7794 23.9174 15.7273 23.0479 15.7709 22.0794C15.8544 20.1051 16.2819 18.7247 16.8099 18.7247C17.0732 18.7247 17.2872 19.0536 17.4282 19.6741C17.5694 20.3009 17.6255 21.1758 17.585 22.14ZM23.8151 15.3563H22.8835C22.8395 15.3566 22.7963 15.3971 22.7574 15.4745C22.7186 15.5518 22.6854 15.6636 22.6607 15.8001L21.3757 22.9159L20.831 16.0779C20.8143 15.8693 20.7801 15.6865 20.7336 15.5566C20.6871 15.4266 20.6308 15.3564 20.5728 15.3563H19.6573C19.6316 15.356 19.6062 15.3789 19.5834 15.4229C19.5605 15.4669 19.5407 15.5308 19.5257 15.6093C19.5108 15.6878 19.501 15.7786 19.4972 15.8742C19.4935 15.9697 19.4958 16.0673 19.5041 16.1588L20.5303 27.4806L19.5655 32.6008C19.5484 32.6916 19.5382 32.7984 19.5362 32.9095C19.5341 33.0205 19.5402 33.1316 19.5538 33.2305C19.5674 33.3294 19.5879 33.4124 19.6132 33.4703C19.6385 33.5281 19.6676 33.5587 19.6972 33.5587H20.6277C20.6712 33.5589 20.714 33.5195 20.7525 33.4439C20.791 33.3683 20.8241 33.2587 20.8488 33.1245L23.9476 16.3088C23.9644 16.2179 23.9743 16.1113 23.9761 16.0008C23.978 15.8903 23.9717 15.78 23.9581 15.6818C23.9444 15.5837 23.9239 15.5015 23.8987 15.4441C23.8735 15.3867 23.8446 15.3563 23.8151 15.3563Z" fill="#253B80"/>
<path d="M26.8998 8.62362H24.9634C24.8994 8.62372 24.8374 8.70975 24.7888 8.86622C24.7401 9.02269 24.7079 9.23934 24.6979 9.47718L23.9148 28.1415C23.9112 28.2279 23.9126 28.3163 23.9189 28.4006C23.9252 28.4848 23.9363 28.5629 23.9514 28.6295C23.9666 28.696 23.9853 28.7495 24.0065 28.7861C24.0276 28.8228 24.0506 28.8418 24.0739 28.8418H25.0676C25.1124 28.8415 25.1558 28.7811 25.1898 28.6715C25.2239 28.5618 25.2464 28.4101 25.2533 28.2436L25.4755 22.9531C25.4855 22.7151 25.5177 22.4982 25.5664 22.3415C25.615 22.1848 25.677 22.0986 25.7411 22.0985H26.3537C27.6294 22.0985 28.3651 19.7783 28.5576 15.1807C28.6446 13.1692 28.561 11.5887 28.3105 10.4819C28.0356 9.26645 27.5478 8.62362 26.8998 8.62362ZM27.1232 15.4403C27.0176 18.0521 26.4868 18.0521 25.9732 18.0521H25.6814L25.8866 13.1745C25.8925 13.0318 25.9118 12.9017 25.941 12.8078C25.9701 12.7139 26.0073 12.6624 26.0457 12.6626H26.1796C26.529 12.6626 26.859 12.6626 27.0295 13.4118C27.1311 13.8588 27.162 14.5229 27.1232 15.4403ZM32.6869 15.3563H31.7603C31.7219 15.3559 31.6847 15.4073 31.6555 15.5012C31.6263 15.5952 31.6071 15.7254 31.6012 15.8682L31.5602 16.8431L31.4951 16.4897C31.2944 15.3946 30.8471 15.0285 30.4003 15.0285C29.3758 15.0285 28.501 17.9457 28.3306 22.0378C28.2423 24.0791 28.3677 26.031 28.6757 27.3922C28.9588 28.6438 29.3625 29.1653 29.8435 29.1653C30.669 29.1653 31.1268 27.1698 31.1268 27.1698L31.0854 28.1383C31.0817 28.225 31.0831 28.3138 31.0894 28.3984C31.0958 28.483 31.1069 28.5614 31.1221 28.6282C31.1373 28.695 31.1561 28.7486 31.1774 28.7853C31.1986 28.822 31.2217 28.8409 31.2451 28.8407H32.08C32.144 28.8406 32.206 28.7544 32.2547 28.5977C32.3034 28.441 32.3356 28.2241 32.3455 27.9861L32.8469 16.0566C32.8504 15.9699 32.8489 15.8814 32.8425 15.797C32.8361 15.7127 32.8249 15.6346 32.8097 15.5681C32.7946 15.5015 32.7757 15.4482 32.7545 15.4116C32.7333 15.375 32.7102 15.3562 32.6869 15.3563ZM31.3946 22.14C31.3057 24.1313 30.8847 25.468 30.3485 25.468C30.0799 25.468 29.8641 25.1434 29.726 24.5282C29.589 23.9173 29.5374 23.0478 29.5805 22.0793C29.6646 20.1051 30.0915 18.7247 30.6194 18.7247C30.8827 18.7247 31.0968 19.0536 31.2377 19.674C31.3796 20.3009 31.4356 21.1757 31.3946 22.14ZM33.78 9.13554L32.9853 28.1415C32.9817 28.2279 32.9831 28.3163 32.9894 28.4006C32.9957 28.4848 33.0068 28.5629 33.0219 28.6295C33.037 28.696 33.0558 28.7495 33.077 28.7861C33.0981 28.8228 33.1211 28.8418 33.1444 28.8418H33.9433C34.0761 28.8418 34.1888 28.4799 34.2091 27.9871L34.9928 9.32392C34.9964 9.23741 34.995 9.14896 34.9887 9.06466C34.9824 8.98036 34.9713 8.9022 34.9562 8.83556C34.941 8.76891 34.9223 8.71537 34.9011 8.6786C34.88 8.64183 34.857 8.62271 34.8337 8.62256H33.9391C33.9007 8.62307 33.8636 8.67497 33.8344 8.76897C33.8052 8.86297 33.7859 8.99292 33.78 9.13554Z" fill="#179BD7"/>
<path d="M2.06449 32.4689L2.21255 28.9333L1.88274 28.9046H0.307861L1.40232 2.81587C1.40558 2.73616 1.41635 2.6635 1.43267 2.61115C1.44898 2.55879 1.46976 2.53022 1.49121 2.53064H4.14668C5.02825 2.53064 5.63663 3.2203 5.95426 4.58151C6.10317 5.22008 6.19801 5.88739 6.24387 6.62174C6.292 7.39228 6.29285 8.31288 6.24585 9.4357L6.24246 9.51765V10.2371L6.39137 10.5543C6.50505 10.7708 6.60723 11.0637 6.69287 11.4185C6.82026 11.9644 6.90264 12.6583 6.93746 13.481C6.97342 14.3271 6.96153 15.3339 6.90264 16.4738C6.8347 17.785 6.72486 18.927 6.57651 19.8614C6.44563 20.6985 6.26965 21.4235 6.05986 21.9899C5.86282 22.5157 5.6287 22.9148 5.364 23.1702C5.10751 23.4214 4.81507 23.5481 4.49432 23.5481H4.28766C4.13988 23.5481 3.99635 23.7481 3.88368 24.1068C3.77117 24.4693 3.69653 24.9701 3.67305 25.5202L3.65748 25.8384L3.3959 32.0697L3.38401 32.2986C3.3809 32.3709 3.37552 32.4071 3.36759 32.4316C3.35991 32.4552 3.35033 32.4683 3.34041 32.4689H2.06449Z" fill="#253B80"/>
<path d="M6.53246 9.60071C6.52454 9.79121 6.51548 9.98598 6.50529 10.1861C6.15509 16.9453 4.95702 19.2803 3.42687 19.2803H2.64779C2.46066 19.2803 2.30297 19.7912 2.27381 20.4851L1.87493 29.9955L1.76197 32.6913C1.75747 32.7983 1.75919 32.9076 1.76701 33.0118C1.77482 33.116 1.78855 33.2126 1.80725 33.2949C1.82595 33.3773 1.84918 33.4434 1.87532 33.4887C1.90147 33.5341 1.92993 33.5576 1.95872 33.5577H3.34053C3.50416 33.5577 3.64316 33.1107 3.66892 32.504L3.68251 32.2401L3.94268 26.0332L3.95938 25.6926C3.98486 25.0839 4.12414 24.6369 4.28778 24.6369H4.49444C5.83321 24.6369 6.88124 22.5934 7.18755 16.6803C7.31552 14.2101 7.24927 12.1475 6.91068 10.6969C6.80337 10.2482 6.6752 9.87671 6.53246 9.60071Z" fill="#179BD7"/>
<path d="M6.166 9.05153C6.05419 8.92993 5.94044 8.83502 5.82544 8.76737C5.5982 8.63608 5.36854 8.57309 5.13864 8.57899H3.0573C2.97809 8.57876 2.90147 8.68507 2.84129 8.8787C2.78112 9.07234 2.74135 9.34051 2.72919 9.63476L2.28642 20.1775L2.27368 20.4851C2.28748 20.1495 2.33277 19.8435 2.40136 19.6225C2.46995 19.4015 2.55732 19.2802 2.64765 19.2803H3.42674C4.95689 19.2803 6.15496 16.9442 6.50516 10.1861C6.51563 9.98597 6.52441 9.79121 6.53233 9.6007C6.43993 9.41853 6.34362 9.2658 6.24442 9.14413C6.21842 9.11169 6.19227 9.08082 6.166 9.05153Z" fill="#222D65"/>
<path d="M2.72925 9.63469C2.74131 9.34036 2.78106 9.07206 2.84127 8.87852C2.90147 8.68499 2.97815 8.57906 3.05736 8.57999H5.13871C5.38528 8.57999 5.61544 8.64065 5.8255 8.76837C5.96765 8.85235 6.10783 8.97796 6.24477 9.14406C6.3481 9.27284 6.44407 9.42503 6.53268 9.60063C6.63686 7.10277 6.53183 5.40205 6.17258 3.86203C5.77653 2.16664 5.0617 1.4408 4.14701 1.4408H1.49155C1.3047 1.4408 1.14532 1.95165 1.11644 2.64663L0.0103738 29.0035C0.00522191 29.1259 0.00718202 29.251 0.0161193 29.3703C0.0250566 29.4895 0.0407589 29.6001 0.0621461 29.6943C0.0835333 29.7886 0.110098 29.8643 0.140012 29.9163C0.169927 29.9683 0.202482 29.9953 0.235437 29.9954H1.87486L2.28649 20.1775L2.72925 9.63469Z" fill="#253B80"/>
</svg>
